<?xml version="1.0" encoding="utf-8"?>
<!-- Generator: Adobe Illustrator 24.0.0, SVG Export Plug-In . SVG Version: 6.00 Build 0)  -->
<svg version="1.1" id="layer_1" xmlns="http://www.w3.org/2000/svg" xmlns:xlink="http://www.w3.org/1999/xlink" x="0px" y="0px"
	 viewBox="0 0 180 180" style="enable-background:new 0 0 180 180;" xml:space="preserve">
<style type="text/css">
	.st0{fill-rule:evenodd;clip-rule:evenodd;fill:#FFFFFF;}
	.st1{opacity:0.6;fill-rule:evenodd;clip-rule:evenodd;fill:#FFFFFF;enable-background:new    ;}
	.st2{opacity:0.3;fill-rule:evenodd;clip-rule:evenodd;fill:#FFFFFF;enable-background:new    ;}
</style>
<g>
	<path class="st0" d="M127.6,95.9c-11-2.2-23.9-3.5-37.7-3.5c-13.9,0-26.8,1.2-37.7,3.5c11,2.2,23.9,3.5,37.7,3.5
		S116.7,98,127.6,95.9z M135.8,97.8c-12.7,3.2-28.6,5.2-45.9,5.2s-33.3-2-45.9-5.2c-2.1,0.5-4.1,1.1-5.9,1.7
		c-6.5,2.2-11.6,4.7-14.9,7.3c-3.3,2.6-4.4,4.9-4.4,6.8s1.1,4.2,4.4,6.8s8.4,5.2,14.9,7.3c13.1,4.3,31.5,7,51.8,7s38.7-2.7,51.8-7
		c6.5-2.2,11.6-4.7,14.9-7.3c3.3-2.6,4.4-4.9,4.4-6.8s-1.1-4.2-4.4-6.8s-8.4-5.2-14.9-7.3C139.9,98.9,137.9,98.3,135.8,97.8z"/>
	<path class="st1" d="M120.9,59.2C111.5,57.7,101,57,89.8,57c-11.1,0-21.7,0.9-31.1,2.2c9.4,1.5,19.9,2.2,31.1,2.2
		C101,61.5,111.5,60.7,120.9,59.2z M130.9,61c-11.8,2.6-25.9,4.1-41,4.1c-15.2,0-29.2-1.5-41-4.1c-3.9,0.9-7.5,1.9-10.9,3
		c-6.5,2.2-11.6,4.7-14.9,7.3c-3.3,2.6-4.4,4.9-4.4,6.8s1.1,4.2,4.4,6.8c3.3,2.6,8.4,5.2,14.9,7.3c13.1,4.3,31.5,7,51.8,7
		s38.7-2.7,51.8-7c6.5-2.2,11.6-4.7,14.9-7.3c3.3-2.6,4.4-4.9,4.4-6.8s-1.1-4.2-4.4-6.8s-8.4-5.2-14.9-7.3
		C138.4,63,134.8,62,130.9,61z"/>
	<path class="st2" d="M161.1,40.3c0,1.9-1.1,4.2-4.4,6.8c-3.3,2.6-8.4,5.2-14.9,7.3c-13.1,4.3-31.5,7-51.8,7s-38.7-2.7-51.8-7
		c-6.5-2.2-11.6-4.7-14.9-7.3s-4.4-4.9-4.4-6.8c0-1.9,1.1-4.2,4.4-6.8s8.4-5.2,14.9-7.3c13.1-4.3,31.5-7,51.8-7s38.7,2.7,51.8,7
		c6.5,2.2,11.6,4.7,14.9,7.3S161.1,38.5,161.1,40.3z"/>
</g>
</svg>
